<svg width="89" height="40" viewBox="0 0 89 40" fill="none" xmlns="http://www.w3.org/2000/svg">
    <path fill-rule="evenodd" clip-rule="evenodd" d="M19.9965 5.59272e-07C23.9526 -0.000934787 27.8202 1.17138 31.11 3.36867C34.3999 5.56597 36.9642 8.68954 38.4787 12.3443C39.9932 15.9991 40.3899 20.021 39.6185 23.9012C38.847 27.7814 36.9423 31.3457 34.145 34.1433C31.3477 36.9409 27.7836 38.8461 23.9035 39.618C20.0234 40.3899 16.0015 39.9937 12.3465 38.4796C8.69154 36.9656 5.56767 34.4016 3.36999 31.112C1.1723 27.8224 -0.000467436 23.955 1.3976e-07 19.9988C0.000626947 14.6954 2.10752 9.60935 5.85737 5.85905C9.60723 2.10874 14.693 0.00125443 19.9965 5.59272e-07ZM14.5298 21.226H25.7114V18.443H14.5298V21.226ZM28.1374 28.6481H25.5908V23.25H14.4092V28.6481H11.8697V11.1509H14.4092V16.4237H25.5908V11.1438H28.1374V28.6481Z" fill="white"/>
    <path d="M44.2963 13.0922H47.9163C49.283 13.0922 50.016 13.7637 50.016 14.797C50.0136 15.0707 49.928 15.3372 49.7704 15.5611C49.6129 15.785 49.3909 15.9555 49.134 16.0501C49.4491 16.1556 49.7213 16.3608 49.9094 16.6347C50.0975 16.9085 50.1914 17.2362 50.1767 17.5681C50.1767 18.6534 49.4248 19.3604 47.9778 19.3604H44.2963V13.0922ZM45.7693 14.3004V15.537H47.6775C48.1882 15.537 48.4885 15.3432 48.4885 14.9199C48.4885 14.4967 48.1977 14.3004 47.6775 14.3004H45.7693ZM45.7693 16.7477V18.1498H47.7129C48.3301 18.1498 48.6587 17.9133 48.6587 17.4405C48.6587 16.9676 48.3395 16.7311 47.7129 16.7311L45.7693 16.7477Z" fill="white"/>
    <path d="M55.1209 16.5183V13.0922H56.6034V16.6152C56.6034 18.2207 55.5701 19.4928 53.61 19.4928C51.5978 19.4928 50.6 18.2396 50.6 16.6152V13.0922H52.1014V16.5183C52.1014 17.4806 52.6405 18.1238 53.61 18.1238C54.5794 18.1238 55.1209 17.4806 55.1209 16.5183Z" fill="white"/>
    <path d="M57.3459 13.0922H58.8473V19.3604H57.3459V13.0922Z" fill="white"/>
    <path d="M64.8247 19.3604H59.6229V13.0922H61.1243V18.0363H64.8247V19.3604Z" fill="white"/>
    <path d="M63.4818 13.0922H69.724V14.3997H67.3595V19.3651H65.8675V14.3997H63.503L63.4818 13.0922Z" fill="white"/>
    <path d="M71.1994 16.2251C71.1994 14.3004 72.6465 12.9858 74.5286 12.9858C76.4107 12.9858 77.8389 14.3004 77.8389 16.2251C77.8389 18.1498 76.3895 19.4668 74.5286 19.4668C72.6678 19.4668 71.1994 18.1427 71.1994 16.2251ZM76.3209 16.2251C76.3209 15.1753 75.6305 14.3335 74.5286 14.3335C73.4268 14.3335 72.7269 15.1706 72.7269 16.2251C72.7269 17.2797 73.4244 18.1167 74.5286 18.1167C75.6328 18.1167 76.3209 17.2868 76.3209 16.2251Z" fill="white"/>
    <path d="M84.4122 19.3888H83.1945L79.7731 15.0429V19.3604H78.3071V13.0922H80.0119L82.9769 16.9321V13.0922H84.4122V19.3888Z" fill="white"/>
    <path d="M49.6542 25.0139H46.1311V27.8513H44.4074V20.6656H46.1311V23.503H49.6542V20.6656H51.3685V27.8631H49.6542V25.0139Z" fill="white"/>
    <path d="M52.2551 20.6656H58.2775V22.0843H53.9694V23.3824H56.5325V24.8271H53.9694V26.3687H58.6629V27.8584H52.2551V20.6656Z" fill="white"/>
    <path d="M59.027 20.6656H62.0087C64.3093 20.6656 65.9503 21.9022 65.9503 24.2643C65.9503 26.5863 64.3093 27.8631 62.0087 27.8631H59.027V20.6656ZM60.7507 22.1458V26.3829H61.9779C63.3044 26.3829 64.1982 25.6026 64.1982 24.2549C64.1982 22.8646 63.3044 22.1268 61.9779 22.1268L60.7507 22.1458Z" fill="white"/>
    <path d="M66.4775 20.6656H72.4999V22.0843H68.2013V23.3824H70.7667V24.8271H68.2013V26.3687H72.8948V27.8584H66.4775V20.6656Z" fill="white"/>
    <path d="M73.2612 20.6656H77.4771C79.0684 20.6656 80.0426 21.434 80.0426 22.926C80.0676 23.3648 79.9469 23.7994 79.6993 24.1625C79.4517 24.5255 79.0911 24.7966 78.6735 24.9335L80.2956 27.8631H78.482L76.9616 25.125H74.9826V27.8631H73.2612V20.6656ZM74.9826 22.1458V23.6756H77.295C77.9335 23.6756 78.2787 23.4226 78.2787 22.926C78.2787 22.3775 77.9429 22.1458 77.295 22.1458H74.9826Z" fill="white"/>
    <path d="M85.6488 26.617H82.2226L81.6835 27.8631H79.9504L83.1046 20.6538H84.8685L88.0109 27.8631H86.1855L85.6488 26.617ZM85.0293 25.1771L83.9393 22.6305L82.8445 25.1771H85.0293Z" fill="white"/>
</svg>
