<svg xmlns="http://www.w3.org/2000/svg" viewBox="0 0 372.22 169.17"><defs><style>.cls-1,.cls-2{fill:#fff;}.cls-1{fill-rule:evenodd;}</style></defs><g id="Layer_2"><g id="Layer_2-2"><path class="cls-1" d="M84.57,0A84.59,84.59,0,1,1,0,84.58,84.59,84.59,0,0,1,84.57,0M61.45,89.77h47.29V78H61.45ZM119,121.16H108.23V98.33H60.94v22.83H50.2v-74H60.94v22.3h47.29V47.13H119Z"/><path class="cls-2" d="M187.34,55.37h15.31c5.78,0,8.88,2.84,8.88,7.21a5.7,5.7,0,0,1-3.73,5.3,6.47,6.47,0,0,1,4.41,6.42c0,4.59-3.18,7.58-9.3,7.58H187.34Zm6.23,5.11v5.23h8.07c2.16,0,3.43-.82,3.43-2.61s-1.23-2.62-3.43-2.62Zm0,10.35v5.93h8.22c2.61,0,4-1,4-3s-1.35-3-4-3Z"/><path class="cls-2" d="M233.12,69.86V55.37h6.27v14.9c0,6.79-4.37,12.17-12.66,12.17-8.51,0-12.73-5.3-12.73-12.17V55.37h6.35V69.86c0,4.07,2.28,6.79,6.38,6.79S233.12,73.93,233.12,69.86Z"/><path class="cls-2" d="M242.53,55.37h6.35V81.88h-6.35Z"/><path class="cls-2" d="M274.16,81.88h-22V55.37h6.35V76.28h15.65Z"/><path class="cls-2" d="M268.48,55.37h26.4V60.9h-10v21h-6.31v-21h-10Z"/><path class="cls-2" d="M301.12,68.62c0-8.14,6.12-13.7,14.08-13.7s14,5.56,14,13.7-6.13,13.71-14,13.71S301.12,76.73,301.12,68.62Zm21.66,0c0-4.44-2.92-8-7.58-8s-7.62,3.54-7.62,8,2.95,8,7.62,8S322.78,73.11,322.78,68.62Z"/><path class="cls-2" d="M357,82h-5.15L337.38,63.62V81.88h-6.2V55.37h7.21l12.54,16.24V55.37H357Z"/><path class="cls-2" d="M210,105.79H195.1v12h-7.29V87.4h7.29v12H210v-12h7.25v30.44H210Z"/><path class="cls-2" d="M221,87.4h25.47v6H228.25v5.49h10.84V105H228.25v6.52H248.1v6.3H221Z"/><path class="cls-2" d="M249.64,87.4h12.61c9.73,0,16.67,5.23,16.67,15.22,0,9.82-6.94,15.22-16.67,15.22H249.64Zm7.29,6.26v17.92h5.19c5.61,0,9.39-3.3,9.39-9,0-5.88-3.78-9-9.39-9Z"/><path class="cls-2" d="M281.15,87.4h25.47v6H288.44v5.49h10.85V105H288.44v6.52h19.85v6.3H281.15Z"/><path class="cls-2" d="M309.84,87.4h17.83c6.73,0,10.85,3.25,10.85,9.56a8.43,8.43,0,0,1-5.79,8.49l6.86,12.39h-7.67l-6.43-11.58h-8.37v11.58h-7.28Zm7.28,6.26v6.47h9.78c2.7,0,4.16-1.07,4.16-3.17,0-2.32-1.42-3.3-4.16-3.3Z"/><path class="cls-2" d="M362.23,112.57H347.74l-2.28,5.27h-7.33l13.34-30.49h7.46l13.29,30.49H364.5Zm-2.62-6.09L355,95.71l-4.63,10.77Z"/></g></g></svg>