<svg width="33" height="32" viewBox="0 0 33 32" fill="none" xmlns="http://www.w3.org/2000/svg">
    <path d="M26.8226 11.1063L19.5693 3.10626C19.4446 2.96813 19.2924 2.85763 19.1225 2.78185C18.9526 2.70607 18.7687 2.6667 18.5826 2.66626H9.24927C8.80627 2.66097 8.36657 2.743 7.95527 2.90766C7.54398 3.07233 7.16914 3.31639 6.85218 3.62593C6.53522 3.93546 6.28233 4.3044 6.10796 4.71168C5.93359 5.11895 5.84116 5.55659 5.83594 5.99959V25.9996C5.84116 26.4426 5.93359 26.8802 6.10796 27.2875C6.28233 27.6948 6.53522 28.0637 6.85218 28.3732C7.16914 28.6828 7.54398 28.9268 7.95527 29.0915C8.36657 29.2562 8.80627 29.3382 9.24927 29.3329H23.7559C24.1989 29.3382 24.6386 29.2562 25.0499 29.0915C25.4612 28.9268 25.8361 28.6828 26.153 28.3732C26.47 28.0637 26.7229 27.6948 26.8972 27.2875C27.0716 26.8802 27.164 26.4426 27.1693 25.9996V11.9996C27.1684 11.6691 27.0449 11.3508 26.8226 11.1063ZM19.1693 6.66626L22.8226 10.6663H20.1559C20.0163 10.6578 19.8798 10.6217 19.7543 10.5599C19.6288 10.4981 19.5168 10.412 19.425 10.3065C19.3331 10.201 19.2632 10.0782 19.2193 9.94542C19.1754 9.81261 19.1584 9.67238 19.1693 9.53292V6.66626ZM23.7559 26.6663H9.24927C9.15644 26.6717 9.06345 26.6587 8.97564 26.6281C8.88783 26.5975 8.80692 26.5498 8.73755 26.4879C8.66819 26.426 8.61173 26.351 8.57141 26.2672C8.53109 26.1834 8.50771 26.0924 8.5026 25.9996V5.99959C8.50771 5.90674 8.53109 5.81581 8.57141 5.73201C8.61173 5.64821 8.66819 5.5732 8.73755 5.51127C8.80692 5.44933 8.88783 5.4017 8.97564 5.37109C9.06345 5.34049 9.15644 5.32752 9.24927 5.33292H16.5026V9.53292C16.4811 10.5151 16.8489 11.4659 17.5259 12.1778C18.2029 12.8897 19.1339 13.305 20.1159 13.3329H24.5026V25.9996C24.4975 26.0924 24.4741 26.1834 24.4338 26.2672C24.3935 26.351 24.337 26.426 24.2677 26.4879C24.1983 26.5498 24.1174 26.5975 24.0296 26.6281C23.9418 26.6587 23.8488 26.6717 23.7559 26.6663Z" fill="grey"/>
    <path d="M19.1667 17.3337H17.8333V16.0003C17.8333 15.6467 17.6929 15.3076 17.4428 15.0575C17.1928 14.8075 16.8536 14.667 16.5 14.667C16.1464 14.667 15.8072 14.8075 15.5572 15.0575C15.3071 15.3076 15.1667 15.6467 15.1667 16.0003V17.3337H13.8333C13.4797 17.3337 13.1406 17.4741 12.8905 17.7242C12.6405 17.9742 12.5 18.3134 12.5 18.667C12.5 19.0206 12.6405 19.3598 12.8905 19.6098C13.1406 19.8598 13.4797 20.0003 13.8333 20.0003H15.1667V21.3337C15.1667 21.6873 15.3071 22.0264 15.5572 22.2765C15.8072 22.5265 16.1464 22.667 16.5 22.667C16.8536 22.667 17.1928 22.5265 17.4428 22.2765C17.6929 22.0264 17.8333 21.6873 17.8333 21.3337V20.0003H19.1667C19.5203 20.0003 19.8594 19.8598 20.1095 19.6098C20.3595 19.3598 20.5 19.0206 20.5 18.667C20.5 18.3134 20.3595 17.9742 20.1095 17.7242C19.8594 17.4741 19.5203 17.3337 19.1667 17.3337Z" fill="grey"/>
</svg>
