<svg width="590" height="192" viewBox="0 0 590 192" fill="none" xmlns="http://www.w3.org/2000/svg">
    <path opacity="0.18" fill-rule="evenodd" clip-rule="evenodd" d="M263.906 100.237L298.771 135.102L229.463 204.41C219.277 214.595 205.717 220.2 191.283 220.2C176.849 220.2 163.289 214.595 153.104 204.41L80.5111 131.817C73.0982 124.404 69 114.521 69 104.004C69 93.4871 73.0681 83.6333 80.5111 76.1903L267.19 -110.489C274.603 -117.902 284.487 -122 295.004 -122C305.52 -122 315.374 -117.932 322.817 -110.489L383.688 -49.6185C366.12 -46.7558 349.787 -38.921 336.558 -26.9579L295.004 -68.5124L122.488 104.004L191.313 172.829L263.906 100.237ZM436.924 3.58779C436.928 3.59109 436.931 3.59438 436.934 3.59769L509.496 76.16C524.834 91.4981 524.834 116.449 509.496 131.787L322.817 318.496C315.404 325.909 305.52 330.007 295.004 330.007C284.487 330.007 274.633 325.939 267.19 318.496L206.32 257.626C223.858 254.763 240.22 246.928 253.449 234.965L295.004 276.52L467.52 104.004L398.694 35.2081L326.102 107.801L291.207 72.9055L360.515 3.59769C370.73 -6.61768 384.29 -12.2226 398.724 -12.2226C413.15 -12.2226 426.734 -6.59393 436.917 3.58041C436.919 3.58287 436.922 3.58533 436.924 3.58779Z" fill="url(#paint0_linear_942_7895)"/>
    <defs>
        <linearGradient id="paint0_linear_942_7895" x1="69" y1="104.004" x2="521" y2="104.004" gradientUnits="userSpaceOnUse">
            <stop stop-color="#BA2AC3"/>
            <stop offset="1" stop-color="#19051A"/>
        </linearGradient>
    </defs>
</svg>
