<svg width="590" height="192" viewBox="0 0 590 192" fill="none" xmlns="http://www.w3.org/2000/svg">
    <path opacity="0.18" fill-rule="evenodd" clip-rule="evenodd" d="M263.906 100.227L298.771 135.092L229.463 204.4C219.277 214.585 205.717 220.19 191.283 220.19C176.849 220.19 163.289 214.585 153.104 204.4L80.5111 131.808C73.0982 124.395 69 114.511 69 103.994C69 93.4774 73.0681 83.6236 80.5111 76.1805L267.19 -110.499C274.603 -117.912 284.487 -122.01 295.004 -122.01C305.52 -122.01 315.374 -117.942 322.817 -110.499L383.688 -49.6283C366.12 -46.7656 349.787 -38.9308 336.558 -26.9676L295.004 -68.5222L122.488 103.994L191.313 172.82L263.906 100.227ZM436.924 3.57803C436.928 3.58132 436.931 3.58462 436.934 3.58792L509.496 76.1502C524.834 91.4883 524.834 116.439 509.496 131.777L322.817 318.487C315.404 325.899 305.52 329.998 295.004 329.998C284.487 329.998 274.633 325.93 267.19 318.487L206.32 257.616C223.858 254.753 240.22 246.919 253.449 234.956L295.004 276.51L467.52 103.994L398.694 35.1983L326.102 107.791L291.207 72.8958L360.515 3.58792C370.73 -6.62745 384.29 -12.2323 398.724 -12.2323C413.15 -12.2323 426.734 -6.60369 436.917 3.57065C436.919 3.5731 436.922 3.57557 436.924 3.57803Z" fill="url(#paint0_linear_983_18550)"/>
    <defs>
        <linearGradient id="paint0_linear_983_18550" x1="104.5" y1="97.5" x2="488" y2="104" gradientUnits="userSpaceOnUse">
            <stop stop-color="#E2E2E2"/>
            <stop offset="1" stop-color="#CACACA"/>
        </linearGradient>
    </defs>
</svg>
