<svg width="32" height="32" viewBox="0 0 32 32" fill="none" xmlns="http://www.w3.org/2000/svg">
    <path d="M18.0719 21.2054V17.3067C18.0719 17.1441 18.0073 16.9881 17.8923 16.873C17.7772 16.758 17.6212 16.6934 17.4586 16.6934C17.3772 16.6925 17.2965 16.7082 17.2213 16.7393C17.1462 16.7705 17.0781 16.8165 17.0212 16.8747C16.9629 16.9304 16.9168 16.9975 16.8856 17.0718C16.8544 17.1462 16.8388 17.2261 16.8399 17.3067V21.2054C16.8388 21.286 16.8544 21.366 16.8856 21.4403C16.9168 21.5146 16.9629 21.5817 17.0212 21.6374C17.0779 21.6958 17.146 21.7421 17.2212 21.7732C17.2964 21.8044 17.3772 21.8199 17.4586 21.8187C17.6212 21.8187 17.7772 21.7541 17.8923 21.6391C18.0073 21.5241 18.0719 21.3681 18.0719 21.2054Z" fill="grey"/>
    <path d="M28.2659 13.3333H27.7326V6.90133C27.7298 6.85413 27.7209 6.8075 27.7059 6.76267V6.71467C27.6814 6.6576 27.6471 6.60526 27.6046 6.56L21.2046 0.16C21.1593 0.117475 21.1069 0.0831815 21.0499 0.0586666H21.0019C20.9487 0.0295582 20.891 0.0097187 20.8312 0H4.79922C4.65777 0 4.52211 0.0561903 4.4221 0.15621C4.32208 0.256229 4.26589 0.391885 4.26589 0.533333V13.3333H3.73255C3.5911 13.3333 3.45545 13.3895 3.35543 13.4895C3.25541 13.5896 3.19922 13.7252 3.19922 13.8667V24.5333C3.19922 24.6748 3.25541 24.8104 3.35543 24.9105C3.45545 25.0105 3.5911 25.0667 3.73255 25.0667H4.26589V31.4667C4.26589 31.6081 4.32208 31.7438 4.4221 31.8438C4.52211 31.9438 4.65777 32 4.79922 32H27.1992C27.3407 32 27.4763 31.9438 27.5763 31.8438C27.6764 31.7438 27.7326 31.6081 27.7326 31.4667V25.0667H28.2659C28.4073 25.0667 28.543 25.0105 28.643 24.9105C28.743 24.8104 28.7992 24.6748 28.7992 24.5333V13.8667C28.7992 13.7252 28.743 13.5896 28.643 13.4895C28.543 13.3895 28.4073 13.3333 28.2659 13.3333ZM21.3326 1.81867L25.9139 6.4H21.3326V1.81867ZM26.6659 30.9333H5.33255V25.0667H26.6659V30.9333ZM8.11122 22.832L8.26589 21.8347C8.36958 21.8549 8.47491 21.8656 8.58055 21.8667C8.6569 21.8722 8.73354 21.8722 8.80989 21.8667C8.97529 21.8606 9.13276 21.7942 9.25255 21.68C9.31149 21.626 9.35817 21.5599 9.38944 21.4863C9.42072 21.4127 9.43588 21.3333 9.43389 21.2533V15.728H10.5006V21.2213C10.5 21.4433 10.4532 21.6627 10.3632 21.8656C10.2732 22.0686 10.142 22.2505 9.97789 22.4C9.82143 22.5587 9.63442 22.684 9.42816 22.7683C9.22191 22.8526 9.00069 22.8943 8.77789 22.8907C8.55396 22.9063 8.32897 22.8865 8.11122 22.832ZM13.4446 20.2347L12.4899 19.328C12.1931 19.0577 11.9379 18.745 11.7326 18.4C11.5718 18.0904 11.4894 17.7462 11.4926 17.3973C11.4744 17.1177 11.524 16.8378 11.6373 16.5815C11.7506 16.3252 11.9242 16.1001 12.1432 15.9253C12.4345 15.7162 12.7876 15.6111 13.1459 15.6267C13.4907 15.6172 13.831 15.706 14.1272 15.8827C14.3481 16.0113 14.5319 16.1951 14.6606 16.416C14.795 16.6705 14.875 16.9502 14.8952 17.2373L13.8659 17.424C13.8523 17.1765 13.765 16.9388 13.6152 16.7413C13.5618 16.6819 13.4958 16.6353 13.4219 16.6048C13.3481 16.5743 13.2683 16.5608 13.1886 16.5653C13.0969 16.5627 13.0064 16.5858 12.9272 16.632C12.848 16.6782 12.7834 16.7456 12.7406 16.8267C12.6513 16.9897 12.6088 17.1743 12.6179 17.36C12.6367 17.7301 12.786 18.0815 13.0392 18.352C13.1831 18.5174 13.342 18.6692 13.5139 18.8053C13.7646 19.0133 13.9299 19.1627 14.0099 19.2427C14.2491 19.4748 14.4554 19.7386 14.6232 20.0267C14.6851 20.1352 14.7403 20.2474 14.7886 20.3627C14.8794 20.5865 14.9282 20.8252 14.9326 21.0667C14.9534 21.5229 14.818 21.9726 14.5486 22.3413C14.3656 22.5865 14.1069 22.7646 13.8126 22.848C13.6186 22.9044 13.4172 22.9314 13.2152 22.928C12.8344 22.9464 12.4585 22.8355 12.1486 22.6133C11.9148 22.4313 11.7312 22.1927 11.6152 21.92C11.475 21.6015 11.3955 21.2597 11.3806 20.912L12.4046 20.8373C12.4167 21.1652 12.5325 21.4807 12.7352 21.7387C12.7876 21.8052 12.8551 21.8582 12.9321 21.8935C13.0091 21.9287 13.0933 21.9451 13.1779 21.9413C13.2933 21.937 13.4055 21.9028 13.5037 21.842C13.6018 21.7812 13.6826 21.696 13.7379 21.5947C13.8175 21.4516 13.8545 21.2887 13.8446 21.1253C13.8252 20.785 13.674 20.4655 13.4232 20.2347H13.4446ZM15.8072 21.2213V17.3333C15.8072 16.8821 15.9865 16.4494 16.3055 16.1303C16.6246 15.8112 17.0573 15.632 17.5086 15.632C17.9598 15.632 18.3925 15.8112 18.7116 16.1303C19.0306 16.4494 19.2099 16.8821 19.2099 17.3333V21.2213C19.2099 21.6726 19.0306 22.1053 18.7116 22.4244C18.3925 22.7434 17.9598 22.9227 17.5086 22.9227C17.0573 22.9227 16.6246 22.7434 16.3055 22.4244C15.9865 22.1053 15.8072 21.6726 15.8072 21.2213ZM20.1539 22.8213V15.712H21.3326L22.7566 20.512V15.712H23.8232V22.8373H22.6872L21.2099 18.2773V22.8373L20.1539 22.8213ZM26.6659 13.3333H5.33255V1.06667H20.2659V6.93333C20.2659 7.07478 20.3221 7.21044 20.4221 7.31046C20.5221 7.41048 20.6578 7.46667 20.7992 7.46667H26.6659V13.3333Z" fill="grey"/>
</svg>
