<svg width="390" height="656" viewBox="0 0 390 656" fill="none" xmlns="http://www.w3.org/2000/svg">
    <path d="M-9.50342 1801.65C-126.253 1801.65 -236.011 1756.21 -318.53 1673.64L-790.41 1201.85L-792.012 1200.17C-868.122 1119.12 -910 1013.03 -910 901.325C-910 789.622 -864.553 674.86 -781.961 592.357L-318.457 128.942C-235.939 46.4386 -126.253 1 -9.50342 1C107.247 1 216.932 46.4386 299.451 128.942L762.954 592.357C933.309 762.679 933.309 1039.9 762.954 1210.22L299.451 1673.71C216.932 1756.21 107.174 1801.72 -9.57623 1801.72L-9.50342 1801.65Z" stroke="url(#paint0_linear_1109_9122)" stroke-miterlimit="10"/>
    <path d="M-9.50348 1656.01C-87.361 1656.01 -160.484 1625.72 -215.546 1570.67L-685.823 1100.48C-736.66 1046.31 -764.336 975.964 -764.336 901.325C-764.336 826.686 -734.038 750.373 -678.976 695.322L-215.473 231.906C-160.485 176.929 -87.2882 146.563 -9.50348 146.563C68.2812 146.563 141.478 176.856 196.466 231.834L659.97 695.249C773.588 808.773 773.588 993.586 659.97 1107.18L196.466 1570.6C141.405 1625.65 68.2813 1655.94 -9.57629 1655.94L-9.50348 1656.01Z" stroke="url(#paint1_linear_1109_9122)" stroke-miterlimit="10"/>
    <path d="M582.768 772.582L402.581 592.43C402.581 592.43 402.29 592.139 402.144 591.993L119.337 309.24C84.9599 274.869 39.2213 255.937 -9.43054 255.937C-58.0824 255.937 -103.821 274.869 -138.198 309.24L-601.702 772.655C-636.078 807.025 -655.015 852.755 -655.015 901.398C-655.015 950.04 -636.078 995.77 -601.702 1030.14L-138.125 1493.56C-103.748 1527.93 -58.0095 1546.86 -9.35767 1546.86C39.2942 1546.86 85.0328 1527.93 119.41 1493.56L582.913 1030.07C653.925 959.07 653.925 843.58 582.913 772.655L582.768 772.582Z" stroke="url(#paint2_linear_1109_9122)" stroke-miterlimit="10"/>
    <path d="M16.2063 978.586L-86.7783 875.62L-267.038 1055.85L-421.515 901.398L-9.50342 489.465L93.4812 592.43C133.029 552.89 184.084 531.7 235.941 528.86L67.7715 360.722C25.0919 318.051 -44.0987 318.051 -86.7055 360.722L-550.209 824.138C-592.889 866.809 -592.889 935.987 -550.209 978.586L-369.95 1158.81C-313.141 1215.61 -220.717 1215.54 -163.98 1158.81L16.2792 978.586H16.2063Z" stroke="url(#paint3_linear_1109_9122)" stroke-miterlimit="10"/>
    <path d="M531.275 824.065L351.088 643.913C294.206 587.042 201.928 587.042 145.046 643.913L-35.2133 824.138L67.7714 927.103L248.031 746.878L402.581 901.325L-9.43066 1313.26L-112.415 1210.29C-151.963 1249.83 -203.019 1271.02 -254.948 1273.79L-86.7056 1442C-44.0259 1484.67 25.1646 1484.67 67.7714 1442L531.275 978.513C573.955 935.841 573.955 866.737 531.275 824.065Z" stroke="url(#paint4_linear_1109_9122)" stroke-miterlimit="10"/>
    <defs>
        <linearGradient id="paint0_linear_1109_9122" x1="5.00006" y1="601.259" x2="616.5" y2="601.259" gradientUnits="userSpaceOnUse">
            <stop stop-color="#2500C4"/>
            <stop offset="0.505" stop-color="#E6007E"/>
            <stop offset="1" stop-color="#FFDE00"/>
        </linearGradient>
        <linearGradient id="paint1_linear_1109_9122" x1="5.00006" y1="601.259" x2="616.5" y2="601.259" gradientUnits="userSpaceOnUse">
            <stop stop-color="#2500C4"/>
            <stop offset="0.505" stop-color="#E6007E"/>
            <stop offset="1" stop-color="#FFDE00"/>
        </linearGradient>
        <linearGradient id="paint2_linear_1109_9122" x1="5.00006" y1="601.259" x2="616.5" y2="601.259" gradientUnits="userSpaceOnUse">
            <stop stop-color="#2500C4"/>
            <stop offset="0.505" stop-color="#E6007E"/>
            <stop offset="1" stop-color="#FFDE00"/>
        </linearGradient>
        <linearGradient id="paint3_linear_1109_9122" x1="5.00006" y1="601.259" x2="616.5" y2="601.259" gradientUnits="userSpaceOnUse">
            <stop stop-color="#2500C4"/>
            <stop offset="0.505" stop-color="#E6007E"/>
            <stop offset="1" stop-color="#FFDE00"/>
        </linearGradient>
        <linearGradient id="paint4_linear_1109_9122" x1="5.00006" y1="601.259" x2="616.5" y2="601.259" gradientUnits="userSpaceOnUse">
            <stop stop-color="#2500C4"/>
            <stop offset="0.505" stop-color="#E6007E"/>
            <stop offset="1" stop-color="#FFDE00"/>
        </linearGradient>
    </defs>
</svg>
