<svg width="898" height="437" viewBox="0 0 898 437" fill="none" xmlns="http://www.w3.org/2000/svg">
<g filter="url(#filter0_f_361_67971)">
<path d="M-9.50342 1807.65C-126.253 1807.65 -236.011 1762.21 -318.53 1679.64L-790.41 1207.85L-792.012 1206.17C-868.122 1125.12 -910 1019.03 -910 907.325C-910 795.622 -864.553 680.86 -781.961 598.357L-318.457 134.942C-235.939 52.4386 -126.253 7 -9.50342 7C107.247 7 216.932 52.4386 299.451 134.942L762.954 598.357C933.309 768.679 933.309 1045.9 762.954 1216.22L299.451 1679.71C216.932 1762.21 107.174 1807.72 -9.57623 1807.72L-9.50342 1807.65Z" stroke="url(#paint0_linear_361_67971)" stroke-width="1.5" stroke-miterlimit="10"/>
<path d="M-9.50348 1662.01C-87.361 1662.01 -160.484 1631.72 -215.546 1576.67L-685.823 1106.48C-736.66 1052.31 -764.336 981.964 -764.336 907.325C-764.336 832.686 -734.038 756.373 -678.976 701.322L-215.473 237.906C-160.485 182.929 -87.2882 152.563 -9.50348 152.563C68.2812 152.563 141.478 182.856 196.466 237.834L659.97 701.249C773.588 814.773 773.588 999.586 659.97 1113.18L196.466 1576.6C141.405 1631.65 68.2813 1661.94 -9.57629 1661.94L-9.50348 1662.01Z" stroke="url(#paint1_linear_361_67971)" stroke-width="1.5" stroke-miterlimit="10"/>
<path d="M582.768 778.582L402.581 598.43C402.581 598.43 402.29 598.139 402.144 597.993L119.337 315.24C84.9599 280.869 39.2213 261.937 -9.43054 261.937C-58.0824 261.937 -103.821 280.869 -138.198 315.24L-601.702 778.655C-636.078 813.025 -655.015 858.755 -655.015 907.398C-655.015 956.04 -636.078 1001.77 -601.702 1036.14L-138.125 1499.56C-103.748 1533.93 -58.0095 1552.86 -9.35767 1552.86C39.2942 1552.86 85.0328 1533.93 119.41 1499.56L582.913 1036.07C653.925 965.07 653.925 849.58 582.913 778.655L582.768 778.582Z" stroke="url(#paint2_linear_361_67971)" stroke-width="1.5" stroke-miterlimit="10"/>
<path d="M16.2063 984.586L-86.7783 881.62L-267.038 1061.85L-421.515 907.398L-9.50342 495.465L93.4812 598.43C133.029 558.89 184.084 537.7 235.941 534.86L67.7715 366.722C25.0919 324.051 -44.0987 324.051 -86.7055 366.722L-550.209 830.138C-592.889 872.809 -592.889 941.987 -550.209 984.586L-369.95 1164.81C-313.141 1221.61 -220.717 1221.54 -163.98 1164.81L16.2792 984.586H16.2063Z" stroke="url(#paint3_linear_361_67971)" stroke-width="1.5" stroke-miterlimit="10"/>
<path d="M531.275 830.065L351.088 649.913C294.206 593.042 201.928 593.042 145.046 649.913L-35.2133 830.138L67.7714 933.103L248.031 752.878L402.581 907.325L-9.43066 1319.26L-112.415 1216.29C-151.963 1255.83 -203.019 1277.02 -254.948 1279.79L-86.7056 1448C-44.0259 1490.67 25.1646 1490.67 67.7714 1448L531.275 984.513C573.955 941.841 573.955 872.737 531.275 830.065Z" stroke="url(#paint4_linear_361_67971)" stroke-width="1.5" stroke-miterlimit="10"/>
</g>
<path d="M-9.50342 1807.65C-126.253 1807.65 -236.011 1762.21 -318.53 1679.64L-790.41 1207.85L-792.012 1206.17C-868.122 1125.12 -910 1019.03 -910 907.325C-910 795.622 -864.553 680.86 -781.961 598.357L-318.457 134.942C-235.939 52.4386 -126.253 7 -9.50342 7C107.247 7 216.932 52.4386 299.451 134.942L762.954 598.357C933.309 768.679 933.309 1045.9 762.954 1216.22L299.451 1679.71C216.932 1762.21 107.174 1807.72 -9.57623 1807.72L-9.50342 1807.65Z" stroke="url(#paint5_linear_361_67971)" stroke-miterlimit="10"/>
<path d="M-9.50348 1662.01C-87.361 1662.01 -160.484 1631.72 -215.546 1576.67L-685.823 1106.48C-736.66 1052.31 -764.336 981.964 -764.336 907.325C-764.336 832.686 -734.038 756.373 -678.976 701.322L-215.473 237.906C-160.485 182.929 -87.2882 152.563 -9.50348 152.563C68.2812 152.563 141.478 182.856 196.466 237.834L659.97 701.249C773.588 814.773 773.588 999.586 659.97 1113.18L196.466 1576.6C141.405 1631.65 68.2813 1661.94 -9.57629 1661.94L-9.50348 1662.01Z" stroke="url(#paint6_linear_361_67971)" stroke-miterlimit="10"/>
<path d="M582.768 778.582L402.581 598.43C402.581 598.43 402.29 598.139 402.144 597.993L119.337 315.24C84.9599 280.869 39.2213 261.937 -9.43054 261.937C-58.0824 261.937 -103.821 280.869 -138.198 315.24L-601.702 778.655C-636.078 813.025 -655.015 858.755 -655.015 907.398C-655.015 956.04 -636.078 1001.77 -601.702 1036.14L-138.125 1499.56C-103.748 1533.93 -58.0095 1552.86 -9.35767 1552.86C39.2942 1552.86 85.0328 1533.93 119.41 1499.56L582.913 1036.07C653.925 965.07 653.925 849.58 582.913 778.655L582.768 778.582Z" stroke="url(#paint7_linear_361_67971)" stroke-miterlimit="10"/>
<path d="M16.2063 984.586L-86.7783 881.62L-267.038 1061.85L-421.515 907.398L-9.50342 495.465L93.4812 598.43C133.029 558.89 184.084 537.7 235.941 534.86L67.7715 366.722C25.0919 324.051 -44.0987 324.051 -86.7055 366.722L-550.209 830.138C-592.889 872.809 -592.889 941.987 -550.209 984.586L-369.95 1164.81C-313.141 1221.61 -220.717 1221.54 -163.98 1164.81L16.2792 984.586H16.2063Z" stroke="url(#paint8_linear_361_67971)" stroke-miterlimit="10"/>
<path d="M531.275 830.065L351.088 649.913C294.206 593.042 201.928 593.042 145.046 649.913L-35.2133 830.138L67.7714 933.103L248.031 752.878L402.581 907.325L-9.43066 1319.26L-112.415 1216.29C-151.963 1255.83 -203.019 1277.02 -254.948 1279.79L-86.7056 1448C-44.0259 1490.67 25.1646 1490.67 67.7714 1448L531.275 984.513C573.955 941.841 573.955 872.737 531.275 830.065Z" stroke="url(#paint9_linear_361_67971)" stroke-miterlimit="10"/>
<defs>
<filter id="filter0_f_361_67971" x="-916.75" y="0.25" width="1814.22" height="1814.22" filterUnits="userSpaceOnUse" color-interpolation-filters="sRGB">
<feFlood flood-opacity="0" result="BackgroundImageFix"/>
<feBlend mode="normal" in="SourceGraphic" in2="BackgroundImageFix" result="shape"/>
<feGaussianBlur stdDeviation="3" result="effect1_foregroundBlur_361_67971"/>
</filter>
<linearGradient id="paint0_linear_361_67971" x1="2.99995" y1="607.259" x2="619.5" y2="607.259" gradientUnits="userSpaceOnUse">
<stop stop-color="#2500C4"/>
<stop offset="0.505" stop-color="#E6007E"/>
<stop offset="1" stop-color="#FFDE00"/>
</linearGradient>
<linearGradient id="paint1_linear_361_67971" x1="2.99995" y1="607.259" x2="619.5" y2="607.259" gradientUnits="userSpaceOnUse">
<stop stop-color="#2500C4"/>
<stop offset="0.505" stop-color="#E6007E"/>
<stop offset="1" stop-color="#FFDE00"/>
</linearGradient>
<linearGradient id="paint2_linear_361_67971" x1="2.99995" y1="607.259" x2="619.5" y2="607.259" gradientUnits="userSpaceOnUse">
<stop stop-color="#2500C4"/>
<stop offset="0.505" stop-color="#E6007E"/>
<stop offset="1" stop-color="#FFDE00"/>
</linearGradient>
<linearGradient id="paint3_linear_361_67971" x1="2.99995" y1="607.259" x2="619.5" y2="607.259" gradientUnits="userSpaceOnUse">
<stop stop-color="#2500C4"/>
<stop offset="0.505" stop-color="#E6007E"/>
<stop offset="1" stop-color="#FFDE00"/>
</linearGradient>
<linearGradient id="paint4_linear_361_67971" x1="2.99995" y1="607.259" x2="619.5" y2="607.259" gradientUnits="userSpaceOnUse">
<stop stop-color="#2500C4"/>
<stop offset="0.505" stop-color="#E6007E"/>
<stop offset="1" stop-color="#FFDE00"/>
</linearGradient>
<linearGradient id="paint5_linear_361_67971" x1="5.00006" y1="607.259" x2="616.5" y2="607.259" gradientUnits="userSpaceOnUse">
<stop stop-color="#2500C4"/>
<stop offset="0.505" stop-color="#E6007E"/>
<stop offset="1" stop-color="#FFDE00"/>
</linearGradient>
<linearGradient id="paint6_linear_361_67971" x1="5.00006" y1="607.259" x2="616.5" y2="607.259" gradientUnits="userSpaceOnUse">
<stop stop-color="#2500C4"/>
<stop offset="0.505" stop-color="#E6007E"/>
<stop offset="1" stop-color="#FFDE00"/>
</linearGradient>
<linearGradient id="paint7_linear_361_67971" x1="5.00006" y1="607.259" x2="616.5" y2="607.259" gradientUnits="userSpaceOnUse">
<stop stop-color="#2500C4"/>
<stop offset="0.505" stop-color="#E6007E"/>
<stop offset="1" stop-color="#FFDE00"/>
</linearGradient>
<linearGradient id="paint8_linear_361_67971" x1="5.00006" y1="607.259" x2="616.5" y2="607.259" gradientUnits="userSpaceOnUse">
<stop stop-color="#2500C4"/>
<stop offset="0.505" stop-color="#E6007E"/>
<stop offset="1" stop-color="#FFDE00"/>
</linearGradient>
<linearGradient id="paint9_linear_361_67971" x1="5.00006" y1="607.259" x2="616.5" y2="607.259" gradientUnits="userSpaceOnUse">
<stop stop-color="#2500C4"/>
<stop offset="0.505" stop-color="#E6007E"/>
<stop offset="1" stop-color="#FFDE00"/>
</linearGradient>
</defs>
</svg>
