<svg width="12" height="12" viewBox="0 0 12 12" fill="none" xmlns="http://www.w3.org/2000/svg">
<path fill-rule="evenodd" clip-rule="evenodd" d="M2.7595 1.1496C3.71879 0.508623 4.8466 0.166504 6.00033 0.166504C6.23626 0.166504 6.44897 0.308629 6.53926 0.526605C6.62955 0.744582 6.57964 0.995484 6.41281 1.16232C5.82601 1.74911 5.49635 2.54498 5.49635 3.37484C5.49635 4.20469 5.82601 5.00056 6.41281 5.58736C6.9996 6.17416 7.79547 6.50381 8.62533 6.50381C9.45518 6.50381 10.2511 6.17416 10.8378 5.58736C11.0047 5.42053 11.2556 5.37062 11.4736 5.46091C11.6915 5.5512 11.8337 5.7639 11.8337 5.99984C11.8337 7.15356 11.4915 8.28138 10.8506 9.24066C10.2096 10.2 9.29855 10.9476 8.23265 11.3891C7.16675 11.8306 5.99386 11.9462 4.8623 11.7211C3.73075 11.496 2.69134 10.9404 1.87554 10.1246C1.05973 9.30882 0.504161 8.26942 0.279081 7.13786C0.0540002 6.00631 0.16952 4.83342 0.611031 3.76752C1.05254 2.70162 1.80022 1.79057 2.7595 1.1496Z" fill="white"/>
</svg>
