<svg width="18" height="17" viewBox="0 0 18 17" fill="none" xmlns="http://www.w3.org/2000/svg">
    <path d="M11.6562 3.2498L14.6562 6.2498M16.2867 4.6088C16.6832 4.21236 16.906 3.67465 16.9061 3.11394C16.9062 2.55323 16.6835 2.01545 16.2871 1.61892C15.8906 1.22239 15.3529 0.999582 14.7922 0.999512C14.2315 0.999441 13.6937 1.22212 13.2972 1.61855L3.2877 11.6303C3.11357 11.8039 2.98479 12.0177 2.9127 12.2528L1.92195 15.5168C1.90257 15.5817 1.9011 15.6506 1.91771 15.7162C1.93432 15.7818 1.96839 15.8417 2.0163 15.8895C2.06421 15.9374 2.12417 15.9713 2.18982 15.9879C2.25547 16.0044 2.32437 16.0028 2.3892 15.9833L5.65395 14.9933C5.88883 14.9219 6.10258 14.7939 6.27645 14.6205L16.2867 4.6088Z" stroke="#1896B2" stroke-width="2" stroke-linecap="round" stroke-linejoin="round"/>
</svg>
