<svg width="17" height="16" viewBox="0 0 17 16" fill="none" xmlns="http://www.w3.org/2000/svg">
<path fill-rule="evenodd" clip-rule="evenodd" d="M8.49984 2.00002C5.18613 2.00002 2.49984 4.68631 2.49984 8.00002C2.49984 11.3137 5.18613 14 8.49984 14C11.8135 14 14.4998 11.3137 14.4998 8.00002C14.4998 4.68631 11.8135 2.00002 8.49984 2.00002ZM1.1665 8.00002C1.1665 3.94993 4.44975 0.666687 8.49984 0.666687C12.5499 0.666687 15.8332 3.94993 15.8332 8.00002C15.8332 12.0501 12.5499 15.3334 8.49984 15.3334C4.44975 15.3334 1.1665 12.0501 1.1665 8.00002Z" fill="#A2A2A2"/>
<path fill-rule="evenodd" clip-rule="evenodd" d="M8.50016 7.33331C8.86835 7.33331 9.16683 7.63179 9.16683 7.99998V10.6666C9.16683 11.0348 8.86835 11.3333 8.50016 11.3333C8.13197 11.3333 7.8335 11.0348 7.8335 10.6666V7.99998C7.8335 7.63179 8.13197 7.33331 8.50016 7.33331Z" fill="#A2A2A2"/>
<path fill-rule="evenodd" clip-rule="evenodd" d="M7.8335 5.33335C7.8335 4.96516 8.13197 4.66669 8.50016 4.66669H8.50683C8.87502 4.66669 9.1735 4.96516 9.1735 5.33335C9.1735 5.70154 8.87502 6.00002 8.50683 6.00002H8.50016C8.13197 6.00002 7.8335 5.70154 7.8335 5.33335Z" fill="#A2A2A2"/>
</svg>
