<svg width="20" height="20" viewBox="0 0 20 20" fill="none" xmlns="http://www.w3.org/2000/svg">
    <path d="M15.1231 7.62055L14.8731 15.1874C14.8518 15.8355 14.5788 16.4497 14.1121 16.8998C13.6453 17.3499 13.0215 17.6004 12.3731 17.5981H7.62312C6.97514 17.6004 6.35172 17.3503 5.88503 16.9007C5.41833 16.4512 5.14506 15.8375 5.12312 15.1899L4.87313 7.62055C4.86765 7.45479 4.92826 7.29365 5.0416 7.17257C5.15494 7.05149 5.31174 6.9804 5.4775 6.97493C5.64326 6.96946 5.8044 7.03006 5.92548 7.1434C6.04656 7.25674 6.11766 7.41354 6.12313 7.5793L6.37312 15.1481C6.38557 15.4712 6.52275 15.7769 6.75583 16.001C6.98891 16.2251 7.29978 16.3502 7.62312 16.3499H12.3731C12.6969 16.3501 13.0081 16.2247 13.2413 16.0001C13.4744 15.7754 13.6113 15.4691 13.6231 15.1456L13.8731 7.5793C13.8786 7.41354 13.9497 7.25674 14.0708 7.1434C14.1918 7.03006 14.353 6.96946 14.5187 6.97493C14.6845 6.9804 14.8413 7.05149 14.9546 7.17257C15.068 7.29365 15.1286 7.45479 15.1231 7.62055ZM15.95 5.10243C15.95 5.26819 15.8842 5.42716 15.7669 5.54437C15.6497 5.66158 15.4908 5.72743 15.325 5.72743H4.67188C4.50611 5.72743 4.34714 5.66158 4.22993 5.54437C4.11272 5.42716 4.04688 5.26819 4.04688 5.10243C4.04688 4.93667 4.11272 4.7777 4.22993 4.66049C4.34714 4.54328 4.50611 4.47743 4.67188 4.47743H6.60938C6.8074 4.47796 6.99855 4.4048 7.14561 4.27218C7.29268 4.13955 7.38514 3.95696 7.405 3.75993C7.45112 3.29773 7.66766 2.86926 8.01243 2.558C8.35721 2.24673 8.80551 2.07497 9.27 2.07618H10.7263C11.1907 2.07497 11.639 2.24673 11.9838 2.558C12.3286 2.86926 12.5451 3.29773 12.5912 3.75993C12.6111 3.95696 12.7036 4.13955 12.8506 4.27218C12.9977 4.4048 13.1888 4.47796 13.3869 4.47743H15.3244C15.4901 4.47743 15.6491 4.54328 15.7663 4.66049C15.8835 4.7777 15.9494 4.93667 15.9494 5.10243H15.95ZM8.49 4.47743H11.5075C11.4254 4.28977 11.3717 4.09092 11.3481 3.88743C11.3326 3.73337 11.2605 3.59054 11.1457 3.48662C11.031 3.3827 10.8817 3.32508 10.7269 3.32493H9.27063C9.11579 3.32508 8.96653 3.3827 8.85175 3.48662C8.73697 3.59054 8.66486 3.73337 8.64937 3.88743C8.62564 4.09095 8.57234 4.2898 8.49 4.47743ZM9.11937 13.9468V8.62493C9.11937 8.45917 9.05353 8.3002 8.93632 8.18299C8.81911 8.06578 8.66014 7.99993 8.49437 7.99993C8.32861 7.99993 8.16964 8.06578 8.05243 8.18299C7.93522 8.3002 7.86937 8.45917 7.86937 8.62493V13.9493C7.86937 14.1151 7.93522 14.274 8.05243 14.3912C8.16964 14.5085 8.32861 14.5743 8.49437 14.5743C8.66014 14.5743 8.81911 14.5085 8.93632 14.3912C9.05353 14.274 9.11937 14.1151 9.11937 13.9493V13.9468ZM12.1281 13.9468V8.62493C12.1281 8.45917 12.0623 8.3002 11.9451 8.18299C11.8279 8.06578 11.6689 7.99993 11.5031 7.99993C11.3374 7.99993 11.1784 8.06578 11.0612 8.18299C10.944 8.3002 10.8781 8.45917 10.8781 8.62493V13.9493C10.8781 14.1151 10.944 14.274 11.0612 14.3912C11.1784 14.5085 11.3374 14.5743 11.5031 14.5743C11.6689 14.5743 11.8279 14.5085 11.9451 14.3912C12.0623 14.274 12.1281 14.1151 12.1281 13.9493V13.9468Z" fill="#ED6A5E"/>
</svg>
