<svg width="18" height="18" viewBox="0 0 18 18" fill="none" xmlns="http://www.w3.org/2000/svg">
<path fill-rule="evenodd" clip-rule="evenodd" d="M8.25 3C5.3505 3 3 5.3505 3 8.25C3 11.1495 5.3505 13.5 8.25 13.5C11.1495 13.5 13.5 11.1495 13.5 8.25C13.5 5.3505 11.1495 3 8.25 3ZM1.5 8.25C1.5 4.52208 4.52208 1.5 8.25 1.5C11.9779 1.5 15 4.52208 15 8.25C15 11.9779 11.9779 15 8.25 15C4.52208 15 1.5 11.9779 1.5 8.25Z" fill="white"/>
<path fill-rule="evenodd" clip-rule="evenodd" d="M11.9951 11.9946C12.288 11.7017 12.7628 11.7017 13.0557 11.9946L16.2807 15.2196C16.5736 15.5125 16.5736 15.9873 16.2807 16.2802C15.9878 16.5731 15.513 16.5731 15.2201 16.2802L11.9951 13.0552C11.7022 12.7623 11.7022 12.2875 11.9951 11.9946Z" fill="white"/>
</svg>
