<svg width="32" height="32" viewBox="0 0 32 32" fill="none" xmlns="http://www.w3.org/2000/svg">
    <g clip-path="url(#clip0_5543_32015)">
        <path d="M28.5326 7.55477C28.5326 7.06737 27.7828 7.06737 27.7828 7.55477V30.0879C27.7828 30.4066 27.6515 30.6878 27.4453 30.9127C27.2391 31.1189 26.9392 31.2501 26.6392 31.2501H5.36213C5.04344 31.2501 4.76225 31.1189 4.55604 30.9127C4.33108 30.6878 4.2186 30.4066 4.2186 30.0879V1.89338C4.2186 1.27475 4.72475 0.749854 5.36213 0.749854H20.9778C21.4652 0.749854 21.4652 0 20.9778 0H5.36213C4.31234 0 3.46875 0.862332 3.46875 1.89338V30.0879C3.46875 30.6128 3.67496 31.1002 4.01239 31.4376C4.36857 31.775 4.83723 32 5.36213 32H26.6392C27.1641 32 27.6328 31.775 27.9702 31.4376C28.3264 31.0814 28.5326 30.6128 28.5326 30.0879V7.55477Z" fill="white"/>
        <path d="M21.2403 0.112365L28.4201 7.29221C28.6638 7.53591 28.4951 7.92959 28.1577 7.92959H22.4963C21.4465 7.92959 20.6029 7.086 20.6029 6.03621V0.374814C20.6029 0.0373795 21.0153 -0.131338 21.2403 0.112365ZM27.2579 7.17973L21.3528 1.27464V6.03621C21.3528 6.67358 21.8589 7.17973 22.4963 7.17973H27.2579ZM3.84368 14.9595H23.2649C23.7898 14.9595 24.2584 15.1844 24.5959 15.5219C24.9333 15.8593 25.1395 16.3279 25.1395 16.8341V23.864C25.1395 24.3889 24.9333 24.8575 24.5959 25.195C24.2584 25.5324 23.7898 25.7386 23.2649 25.7386H3.84368C3.63747 25.7386 3.46875 25.5699 3.46875 25.3637V15.3344C3.46875 15.1282 3.63747 14.9595 3.84368 14.9595ZM23.2649 15.7093H4.2186V24.9888H23.2649C23.5836 24.9888 23.8648 24.8575 24.071 24.6513V24.6701C24.2772 24.4639 24.3897 24.1827 24.3897 23.864V16.8341C24.3897 16.5342 24.2772 16.253 24.071 16.0468C23.8648 15.8405 23.5836 15.7093 23.2649 15.7093Z" fill="white"/>
        <path d="M6.69281 21.3898L7.42391 21.3336C7.53639 22.2896 8.21126 22.6646 9.12983 22.6646C10.7045 22.6646 11.0794 21.3148 9.89843 20.8649C8.88613 20.4712 6.91776 20.49 6.91776 18.9528C6.91776 17.0594 10.0109 16.8907 10.8545 18.1654C11.042 18.4466 11.1357 18.7466 11.1357 19.084L10.4046 19.1402C10.2359 17.6218 8.34248 17.9967 7.96756 18.2779C7.57388 18.5966 7.55514 19.1215 7.87383 19.4214C8.54869 20.0213 11.3232 19.7214 11.3232 21.6148C11.3232 23.6581 7.96756 23.8831 7.01149 22.4396C6.80528 22.1397 6.71155 21.7835 6.69281 21.3898ZM12.1292 20.4337C12.1292 16.7595 16.2347 16.5345 17.3595 18.8028C18.2218 20.565 17.4907 23.3582 14.9037 23.3582C13.2353 23.3582 12.1292 22.0647 12.1292 20.4337ZM12.9353 20.4525C12.9353 22.8145 15.2786 23.2457 16.3284 22.0834C17.322 21.0149 17.1345 18.0155 14.9224 18.0155C13.5915 18.0155 12.9353 18.9715 12.9353 20.4525ZM18.653 23.2644V17.4531H19.4216V22.5708H22.271V23.2644H18.653ZM6.24289 12.5415C5.73674 12.5415 5.73674 13.2914 6.24289 13.2914H22.3647C22.8709 13.2914 22.8709 12.5415 22.3647 12.5415H6.24289ZM6.24289 9.67334C5.73674 9.67334 5.73674 10.4232 6.24289 10.4232H22.3647C22.8709 10.4232 22.8709 9.67334 22.3647 9.67334H6.24289Z" fill="white"/>
    </g>
    <defs>
        <clipPath id="clip0_5543_32015">
            <rect width="32" height="32" fill="white"/>
        </clipPath>
    </defs>
</svg>
