<svg width="16" height="16" viewBox="0 0 16 16" fill="none" xmlns="http://www.w3.org/2000/svg">
<g clip-path="url(#clip0_637_15028)">
<path fill-rule="evenodd" clip-rule="evenodd" d="M4.66699 8.00008C4.66699 6.15913 6.15938 4.66675 8.00033 4.66675C9.84128 4.66675 11.3337 6.15913 11.3337 8.00008C11.3337 9.84103 9.84128 11.3334 8.00033 11.3334C6.15938 11.3334 4.66699 9.84103 4.66699 8.00008Z" fill="#050505"/>
<path fill-rule="evenodd" clip-rule="evenodd" d="M7.99967 0.666748C8.36786 0.666748 8.66634 0.965225 8.66634 1.33341V2.66675C8.66634 3.03494 8.36786 3.33341 7.99967 3.33341C7.63148 3.33341 7.33301 3.03494 7.33301 2.66675V1.33341C7.33301 0.965225 7.63148 0.666748 7.99967 0.666748Z" fill="#050505"/>
<path fill-rule="evenodd" clip-rule="evenodd" d="M7.99967 12.6667C8.36786 12.6667 8.66634 12.9652 8.66634 13.3334V14.6667C8.66634 15.0349 8.36786 15.3334 7.99967 15.3334C7.63148 15.3334 7.33301 15.0349 7.33301 14.6667V13.3334C7.33301 12.9652 7.63148 12.6667 7.99967 12.6667Z" fill="#050505"/>
<path fill-rule="evenodd" clip-rule="evenodd" d="M2.81538 2.81538C3.07573 2.55503 3.49784 2.55503 3.75819 2.81538L4.69819 3.75538C4.95854 4.01573 4.95854 4.43784 4.69819 4.69819C4.43784 4.95854 4.01573 4.95854 3.75538 4.69819L2.81538 3.75819C2.55503 3.49784 2.55503 3.07573 2.81538 2.81538Z" fill="#050505"/>
<path fill-rule="evenodd" clip-rule="evenodd" d="M11.3017 11.302C11.5621 11.0416 11.9842 11.0416 12.2445 11.302L13.1845 12.242C13.4449 12.5023 13.4449 12.9244 13.1845 13.1848C12.9242 13.4451 12.5021 13.4451 12.2417 13.1848L11.3017 12.2448C11.0414 11.9844 11.0414 11.5623 11.3017 11.302Z" fill="#050505"/>
<path fill-rule="evenodd" clip-rule="evenodd" d="M0.666992 7.99992C0.666992 7.63173 0.965469 7.33325 1.33366 7.33325H2.66699C3.03518 7.33325 3.33366 7.63173 3.33366 7.99992C3.33366 8.36811 3.03518 8.66658 2.66699 8.66658H1.33366C0.965469 8.66658 0.666992 8.36811 0.666992 7.99992Z" fill="#050505"/>
<path fill-rule="evenodd" clip-rule="evenodd" d="M12.667 7.99992C12.667 7.63173 12.9655 7.33325 13.3337 7.33325H14.667C15.0352 7.33325 15.3337 7.63173 15.3337 7.99992C15.3337 8.36811 15.0352 8.66658 14.667 8.66658H13.3337C12.9655 8.66658 12.667 8.36811 12.667 7.99992Z" fill="#050505"/>
<path fill-rule="evenodd" clip-rule="evenodd" d="M4.69819 11.302C4.95854 11.5623 4.95854 11.9844 4.69819 12.2448L3.75819 13.1848C3.49784 13.4451 3.07573 13.4451 2.81538 13.1848C2.55503 12.9244 2.55503 12.5023 2.81538 12.242L3.75538 11.302C4.01573 11.0416 4.43784 11.0416 4.69819 11.302Z" fill="#050505"/>
<path fill-rule="evenodd" clip-rule="evenodd" d="M13.1845 2.81538C13.4449 3.07573 13.4449 3.49784 13.1845 3.75819L12.2445 4.69819C11.9842 4.95854 11.5621 4.95854 11.3017 4.69819C11.0414 4.43784 11.0414 4.01573 11.3017 3.75538L12.2417 2.81538C12.5021 2.55503 12.9242 2.55503 13.1845 2.81538Z" fill="#050505"/>
</g>
<defs>
<clipPath id="clip0_637_15028">
<rect width="16" height="16" fill="white"/>
</clipPath>
</defs>
</svg>
