<svg width="24" height="24" viewBox="0 0 24 24" fill="none" xmlns="http://www.w3.org/2000/svg">
    <path d="M20.0625 4.45875V19.5413C20.0615 20.4748 19.6902 21.3699 19.0301 22.0301C18.3699 22.6902 17.4748 23.0615 16.5413 23.0625H15.5625C15.4133 23.0625 15.2702 23.0032 15.1648 22.8977C15.0593 22.7923 15 22.6492 15 22.5C15 21.7044 14.6839 20.9413 14.1213 20.3787C13.5587 19.8161 12.7956 19.5 12 19.5C11.2044 19.5 10.4413 19.8161 9.87868 20.3787C9.31607 20.9413 9 21.7044 9 22.5C9 22.6492 8.94074 22.7923 8.83525 22.8977C8.72976 23.0032 8.58668 23.0625 8.4375 23.0625H7.45875C6.52516 23.0615 5.63009 22.6902 4.96995 22.0301C4.3098 21.3699 3.93849 20.4748 3.9375 19.5413V4.45875C3.93849 3.52516 4.3098 2.63009 4.96995 1.96995C5.63009 1.3098 6.52516 0.938493 7.45875 0.9375H8.4375C8.58668 0.9375 8.72976 0.996763 8.83525 1.10225C8.94074 1.20774 9 1.35082 9 1.5C9 2.29565 9.31607 3.05871 9.87868 3.62132C10.4413 4.18393 11.2044 4.5 12 4.5C12.7956 4.5 13.5587 4.18393 14.1213 3.62132C14.6839 3.05871 15 2.29565 15 1.5C15 1.35082 15.0593 1.20774 15.1648 1.10225C15.2702 0.996763 15.4133 0.9375 15.5625 0.9375H16.5413C17.4748 0.938493 18.3699 1.3098 19.0301 1.96995C19.6902 2.63009 20.0615 3.52516 20.0625 4.45875Z" fill="#255CF4"/>
    <path d="M6.1875 12.7087C6.1875 12.8579 6.12824 13.001 6.02275 13.1065C5.91726 13.212 5.77418 13.2712 5.625 13.2712H3.9375V12.1462H5.625C5.77418 12.1462 5.91726 12.2055 6.02275 12.311C6.12824 12.4165 6.1875 12.5596 6.1875 12.7087ZM15.825 12.1462H13.275C13.1258 12.1462 12.9827 12.2055 12.8773 12.311C12.7718 12.4165 12.7125 12.5596 12.7125 12.7087C12.7125 12.8579 12.7718 13.001 12.8773 13.1065C12.9827 13.212 13.1258 13.2712 13.275 13.2712H15.825C15.9742 13.2712 16.1173 13.212 16.2227 13.1065C16.3282 13.001 16.3875 12.8579 16.3875 12.7087C16.3875 12.5596 16.3282 12.4165 16.2227 12.311C16.1173 12.2055 15.9742 12.1462 15.825 12.1462ZM10.725 12.1462H8.175C8.02582 12.1462 7.88274 12.2055 7.77725 12.311C7.67176 12.4165 7.6125 12.5596 7.6125 12.7087C7.6125 12.8579 7.67176 13.001 7.77725 13.1065C7.88274 13.212 8.02582 13.2712 8.175 13.2712H10.725C10.8742 13.2712 11.0173 13.212 11.1227 13.1065C11.2282 13.001 11.2875 12.8579 11.2875 12.7087C11.2875 12.5596 11.2282 12.4165 11.1227 12.311C11.0173 12.2055 10.8742 12.1462 10.725 12.1462ZM20.0625 12.1462V13.2712H18.375C18.2258 13.2712 18.0827 13.212 17.9773 13.1065C17.8718 13.001 17.8125 12.8579 17.8125 12.7087C17.8125 12.5596 17.8718 12.4165 17.9773 12.311C18.0827 12.2055 18.2258 12.1462 18.375 12.1462H20.0625Z" fill="#D9D9D9"/>
</svg>
